# MagicaVoxel @ Ephtracy

# group
o stick3

# material
mtllib stick4.mtl
usemtl palette

# normals
vn -1 0 0
vn 1 0 0
vn 0 0 1
vn 0 0 -1
vn 0 -1 0
vn 0 1 0

# texcoords
vt 0.943359 0.5
vt 0.994141 0.5

# verts
v -1.1 0 -0.2
v -1.1 0 -0.3
v -1.1 0 -0.6
v -1.1 0 -0.7
v -1.1 0 -0.8
v -1.1 0.1 -0.2
v -1.1 0.1 -0.3
v -1.1 0.1 -0.6
v -1.1 0.1 -0.7
v -1.1 0.1 -0.8
v -1 0 -0.3
v -1 0 -0.4
v -1 0 -0.5
v -1 0 -0.6
v -1 0.1 -0.3
v -1 0.1 -0.4
v -1 0.1 -0.5
v -1 0.1 -0.6
v -0.9 0 -0.4
v -0.9 0 -0.5
v -0.9 0.1 -0.4
v -0.9 0.1 -0.5
v -0.9 0.2 -0.4
v -0.9 0.2 -0.5
v -0.8 0 0.3
v -0.8 0 0.1
v -0.8 0 -0.1
v -0.8 0 -0.2
v -0.8 0.1 0.3
v -0.8 0.1 0.1
v -0.8 0.1 -0.1
v -0.8 0.1 -0.2
v -0.8 0.2 -0.1
v -0.8 0.2 -0.2
v -0.7 0 0.7
v -0.7 0 0.6
v -0.7 0 0.4
v -0.7 0 0.3
v -0.7 0.1 0.7
v -0.7 0.1 0.6
v -0.7 0.1 0.4
v -0.7 0.1 0.3
v -0.6 0 0.8
v -0.6 0 0.7
v -0.6 0.1 0.8
v -0.6 0.1 0.7
v -0.6 0.1 0.6
v -0.6 0.2 0.7
v -0.6 0.2 0.6
v -0.9 0 -0.6
v -0.9 0 -0.8
v -0.9 0.1 -0.6
v -0.9 0.1 -0.8
v -0.8 0 -0.5
v -0.8 0 -0.6
v -0.8 0.1 -0.4
v -0.8 0.1 -0.5
v -0.8 0.1 -0.6
v -0.8 0.2 -0.4
v -0.8 0.2 -0.5
v -0.7 0 -0.2
v -0.7 0 -0.4
v -0.7 0 -0.5
v -0.7 0.1 -0.1
v -0.7 0.1 -0.2
v -0.7 0.1 -0.4
v -0.7 0.1 -0.5
v -0.7 0.2 -0.1
v -0.7 0.2 -0.2
v -0.6 0 0.2
v -0.6 0 0.1
v -0.6 0 -0.1
v -0.6 0 -0.2
v -0.6 0.1 0.2
v -0.6 0.1 0.1
v -0.6 0.1 -0.1
v -0.6 0.1 -0.2
v -0.5 0 0.8
v -0.5 0 0.5
v -0.5 0 0.4
v -0.5 0 0.2
v -0.5 0.1 0.8
v -0.5 0.1 0.7
v -0.5 0.1 0.6
v -0.5 0.1 0.5
v -0.5 0.1 0.4
v -0.5 0.1 0.2
v -0.5 0.2 0.7
v -0.5 0.2 0.6
v -0.6 0 0.8
v -0.6 0.1 0.8
v -0.5 0 0.8
v -0.5 0.1 0.8
v -0.7 0 0.7
v -0.7 0.1 0.7
v -0.6 0 0.7
v -0.6 0.1 0.7
v -0.6 0.2 0.7
v -0.5 0.1 0.7
v -0.5 0.2 0.7
v -0.8 0 0.3
v -0.8 0.1 0.3
v -0.7 0 0.3
v -0.7 0.1 0.3
v -0.8 0.1 -0.1
v -0.8 0.2 -0.1
v -0.7 0.1 -0.1
v -0.7 0.2 -0.1
v -1.1 0 -0.2
v -1.1 0.1 -0.2
v -1 0 -0.2
v -1 0.1 -0.2
v -0.9 0 -0.2
v -0.9 0.1 -0.2
v -0.8 0 -0.2
v -0.8 0.1 -0.2
v -0.9 0.1 -0.4
v -0.9 0.2 -0.4
v -0.8 0.1 -0.4
v -0.8 0.2 -0.4
v -1 0 -0.5
v -1 0.1 -0.5
v -0.9 0 -0.5
v -0.9 0.1 -0.5
v -1.1 0 -0.6
v -1.1 0.1 -0.6
v -1 0 -0.6
v -1 0.1 -0.6
v -0.6 0.1 0.6
v -0.6 0.2 0.6
v -0.5 0.1 0.6
v -0.5 0.2 0.6
v -0.6 0 0.2
v -0.6 0.1 0.2
v -0.5 0 0.2
v -0.5 0.1 0.2
v -0.8 0.1 -0.2
v -0.8 0.2 -0.2
v -0.7 0 -0.2
v -0.7 0.1 -0.2
v -0.7 0.2 -0.2
v -0.6 0 -0.2
v -0.6 0.1 -0.2
v -1.1 0 -0.3
v -1.1 0.1 -0.3
v -1 0 -0.3
v -1 0.1 -0.3
v -1 0 -0.4
v -1 0.1 -0.4
v -0.9 0 -0.4
v -0.9 0.1 -0.4
v -0.9 0.1 -0.5
v -0.9 0.2 -0.5
v -0.8 0 -0.5
v -0.8 0.1 -0.5
v -0.8 0.2 -0.5
v -0.7 0 -0.5
v -0.7 0.1 -0.5
v -0.9 0 -0.6
v -0.9 0.1 -0.6
v -0.8 0 -0.6
v -0.8 0.1 -0.6
v -1.1 0 -0.8
v -1.1 0.1 -0.8
v -0.9 0 -0.8
v -0.9 0.1 -0.8
v -0.6 0 0.8
v -0.5 0 0.8
v -0.7 0 0.7
v -0.6 0 0.7
v -0.7 0 0.6
v -0.6 0 0.6
v -0.6 0 0.5
v -0.5 0 0.5
v -0.7 0 0.4
v -0.6 0 0.4
v -0.5 0 0.4
v -0.8 0 0.3
v -0.7 0 0.3
v -0.6 0 0.2
v -0.5 0 0.2
v -0.8 0 0.1
v -0.7 0 0.1
v -0.6 0 0.1
v -0.8 0 -0.1
v -0.7 0 -0.1
v -0.6 0 -0.1
v -1.1 0 -0.2
v -1 0 -0.2
v -0.9 0 -0.2
v -0.8 0 -0.2
v -0.7 0 -0.2
v -0.6 0 -0.2
v -1.1 0 -0.3
v -1 0 -0.3
v -1 0 -0.4
v -0.9 0 -0.4
v -0.8 0 -0.4
v -0.7 0 -0.4
v -1 0 -0.5
v -0.9 0 -0.5
v -0.8 0 -0.5
v -0.7 0 -0.5
v -1.1 0 -0.6
v -1 0 -0.6
v -0.9 0 -0.6
v -0.8 0 -0.6
v -1.1 0 -0.7
v -1 0 -0.7
v -1.1 0 -0.8
v -0.9 0 -0.8
v -0.6 0.1 0.8
v -0.5 0.1 0.8
v -0.7 0.1 0.7
v -0.6 0.1 0.7
v -0.5 0.1 0.7
v -0.7 0.1 0.6
v -0.6 0.1 0.6
v -0.5 0.1 0.6
v -0.6 0.1 0.5
v -0.5 0.1 0.5
v -0.7 0.1 0.4
v -0.6 0.1 0.4
v -0.5 0.1 0.4
v -0.8 0.1 0.3
v -0.7 0.1 0.3
v -0.6 0.1 0.2
v -0.5 0.1 0.2
v -0.8 0.1 0.1
v -0.7 0.1 0.1
v -0.6 0.1 0.1
v -0.8 0.1 -0.1
v -0.7 0.1 -0.1
v -0.6 0.1 -0.1
v -1.1 0.1 -0.2
v -1 0.1 -0.2
v -0.9 0.1 -0.2
v -0.8 0.1 -0.2
v -0.7 0.1 -0.2
v -0.6 0.1 -0.2
v -1.1 0.1 -0.3
v -1 0.1 -0.3
v -1 0.1 -0.4
v -0.9 0.1 -0.4
v -0.8 0.1 -0.4
v -0.7 0.1 -0.4
v -1 0.1 -0.5
v -0.9 0.1 -0.5
v -0.8 0.1 -0.5
v -0.7 0.1 -0.5
v -1.1 0.1 -0.6
v -1 0.1 -0.6
v -0.9 0.1 -0.6
v -0.8 0.1 -0.6
v -1.1 0.1 -0.7
v -1 0.1 -0.7
v -1.1 0.1 -0.8
v -0.9 0.1 -0.8
v -0.6 0.2 0.7
v -0.5 0.2 0.7
v -0.6 0.2 0.6
v -0.5 0.2 0.6
v -0.8 0.2 -0.1
v -0.7 0.2 -0.1
v -0.8 0.2 -0.2
v -0.7 0.2 -0.2
v -0.9 0.2 -0.4
v -0.8 0.2 -0.4
v -0.9 0.2 -0.5
v -0.8 0.2 -0.5

# faces
f 6/1/1 2/1/1 1/1/1
f 7/1/1 2/1/1 6/1/1
f 8/1/1 4/1/1 3/1/1
f 9/2/1 5/2/1 4/2/1
f 9/1/1 4/1/1 8/1/1
f 10/2/1 5/2/1 9/2/1
f 15/2/1 12/2/1 11/2/1
f 16/2/1 12/2/1 15/2/1
f 17/1/1 14/1/1 13/1/1
f 18/1/1 14/1/1 17/1/1
f 21/2/1 20/2/1 19/2/1
f 22/2/1 20/2/1 21/2/1
f 23/1/1 22/1/1 21/1/1
f 24/1/1 22/1/1 23/1/1
f 29/2/1 26/2/1 25/2/1
f 30/1/1 27/1/1 26/1/1
f 30/2/1 26/2/1 29/2/1
f 31/2/1 28/2/1 27/2/1
f 31/1/1 27/1/1 30/1/1
f 32/2/1 28/2/1 31/2/1
f 33/1/1 32/1/1 31/1/1
f 34/1/1 32/1/1 33/1/1
f 39/1/1 36/1/1 35/1/1
f 40/2/1 37/2/1 36/2/1
f 40/1/1 36/1/1 39/1/1
f 41/1/1 38/1/1 37/1/1
f 41/2/1 37/2/1 40/2/1
f 42/1/1 38/1/1 41/1/1
f 45/2/1 44/2/1 43/2/1
f 46/2/1 44/2/1 45/2/1
f 48/1/1 47/1/1 46/1/1
f 49/1/1 47/1/1 48/1/1
f 50/2/2 51/2/2 52/2/2
f 52/2/2 51/2/2 53/2/2
f 54/2/2 55/2/2 57/2/2
f 57/2/2 55/2/2 58/2/2
f 56/1/2 57/1/2 59/1/2
f 59/1/2 57/1/2 60/1/2
f 61/2/2 62/2/2 65/2/2
f 62/1/2 63/1/2 66/1/2
f 65/2/2 62/2/2 66/2/2
f 66/1/2 63/1/2 67/1/2
f 64/1/2 65/1/2 68/1/2
f 68/1/2 65/1/2 69/1/2
f 70/1/2 71/1/2 74/1/2
f 71/2/2 72/2/2 75/2/2
f 74/1/2 71/1/2 75/1/2
f 72/1/2 73/1/2 76/1/2
f 75/2/2 72/2/2 76/2/2
f 76/1/2 73/1/2 77/1/2
f 78/2/2 79/2/2 82/2/2
f 82/2/2 79/2/2 83/2/2
f 83/2/2 79/2/2 84/2/2
f 79/1/2 80/1/2 85/1/2
f 84/2/2 79/2/2 85/2/2
f 80/2/2 81/2/2 86/2/2
f 85/1/2 80/1/2 86/1/2
f 86/2/2 81/2/2 87/2/2
f 83/1/2 84/1/2 88/1/2
f 88/1/2 84/1/2 89/1/2
f 92/2/3 91/2/3 90/2/3
f 93/2/3 91/2/3 92/2/3
f 96/1/3 95/1/3 94/1/3
f 97/1/3 95/1/3 96/1/3
f 99/1/3 98/1/3 97/1/3
f 100/1/3 98/1/3 99/1/3
f 103/2/3 102/2/3 101/2/3
f 104/2/3 102/2/3 103/2/3
f 107/1/3 106/1/3 105/1/3
f 108/1/3 106/1/3 107/1/3
f 111/1/3 110/1/3 109/1/3
f 112/1/3 110/1/3 111/1/3
f 113/2/3 112/2/3 111/2/3
f 114/2/3 112/2/3 113/2/3
f 115/1/3 114/1/3 113/1/3
f 116/1/3 114/1/3 115/1/3
f 119/1/3 118/1/3 117/1/3
f 120/1/3 118/1/3 119/1/3
f 123/1/3 122/1/3 121/1/3
f 124/1/3 122/1/3 123/1/3
f 127/1/3 126/1/3 125/1/3
f 128/1/3 126/1/3 127/1/3
f 129/1/4 130/1/4 131/1/4
f 131/1/4 130/1/4 132/1/4
f 133/2/4 134/2/4 135/2/4
f 135/2/4 134/2/4 136/2/4
f 137/1/4 138/1/4 140/1/4
f 140/1/4 138/1/4 141/1/4
f 139/1/4 140/1/4 142/1/4
f 142/1/4 140/1/4 143/1/4
f 144/1/4 145/1/4 146/1/4
f 146/1/4 145/1/4 147/1/4
f 148/2/4 149/2/4 150/2/4
f 150/2/4 149/2/4 151/2/4
f 152/1/4 153/1/4 155/1/4
f 155/1/4 153/1/4 156/1/4
f 154/1/4 155/1/4 157/1/4
f 157/1/4 155/1/4 158/1/4
f 159/2/4 160/2/4 161/2/4
f 161/2/4 160/2/4 162/2/4
f 163/2/4 164/2/4 165/2/4
f 165/2/4 164/2/4 166/2/4
f 170/2/5 168/2/5 167/2/5
f 171/1/5 170/1/5 169/1/5
f 172/2/5 168/2/5 170/2/5
f 172/1/5 170/1/5 171/1/5
f 173/2/5 172/2/5 171/2/5
f 173/2/5 168/2/5 172/2/5
f 174/2/5 168/2/5 173/2/5
f 175/2/5 173/2/5 171/2/5
f 176/1/5 174/1/5 173/1/5
f 176/2/5 173/2/5 175/2/5
f 177/1/5 174/1/5 176/1/5
f 179/1/5 176/1/5 175/1/5
f 180/2/5 177/2/5 176/2/5
f 180/1/5 176/1/5 179/1/5
f 181/2/5 177/2/5 180/2/5
f 182/2/5 179/2/5 178/2/5
f 183/1/5 180/1/5 179/1/5
f 183/2/5 179/2/5 182/2/5
f 184/1/5 180/1/5 183/1/5
f 185/1/5 183/1/5 182/1/5
f 186/2/5 184/2/5 183/2/5
f 186/1/5 183/1/5 185/1/5
f 187/2/5 184/2/5 186/2/5
f 191/2/5 186/2/5 185/2/5
f 192/1/5 187/1/5 186/1/5
f 192/2/5 186/2/5 191/2/5
f 193/1/5 187/1/5 192/1/5
f 194/1/5 189/1/5 188/1/5
f 195/2/5 190/2/5 189/2/5
f 195/1/5 189/1/5 194/1/5
f 196/2/5 190/2/5 195/2/5
f 197/1/5 191/1/5 190/1/5
f 197/2/5 190/2/5 196/2/5
f 198/2/5 192/2/5 191/2/5
f 198/1/5 191/1/5 197/1/5
f 199/2/5 192/2/5 198/2/5
f 201/2/5 198/2/5 197/2/5
f 202/1/5 199/1/5 198/1/5
f 202/2/5 198/2/5 201/2/5
f 203/1/5 199/1/5 202/1/5
f 205/1/5 201/1/5 200/1/5
f 206/2/5 202/2/5 201/2/5
f 206/1/5 201/1/5 205/1/5
f 207/2/5 202/2/5 206/2/5
f 208/1/5 205/1/5 204/1/5
f 209/2/5 206/2/5 205/2/5
f 209/1/5 205/1/5 208/1/5
f 210/2/5 209/2/5 208/2/5
f 211/2/5 206/2/5 209/2/5
f 211/2/5 209/2/5 210/2/5
f 212/2/6 213/2/6 215/2/6
f 215/2/6 213/2/6 216/2/6
f 214/1/6 215/1/6 217/1/6
f 217/1/6 215/1/6 218/1/6
f 217/2/6 218/2/6 220/2/6
f 218/2/6 219/2/6 220/2/6
f 220/2/6 219/2/6 221/2/6
f 217/2/6 220/2/6 222/2/6
f 220/1/6 221/1/6 223/1/6
f 222/2/6 220/2/6 223/2/6
f 223/1/6 221/1/6 224/1/6
f 222/1/6 223/1/6 226/1/6
f 223/2/6 224/2/6 227/2/6
f 226/1/6 223/1/6 227/1/6
f 227/2/6 224/2/6 228/2/6
f 225/2/6 226/2/6 229/2/6
f 226/1/6 227/1/6 230/1/6
f 229/2/6 226/2/6 230/2/6
f 230/1/6 227/1/6 231/1/6
f 229/1/6 230/1/6 232/1/6
f 230/2/6 231/2/6 233/2/6
f 232/1/6 230/1/6 233/1/6
f 233/2/6 231/2/6 234/2/6
f 233/1/6 234/1/6 239/1/6
f 239/1/6 234/1/6 240/1/6
f 235/1/6 236/1/6 241/1/6
f 236/2/6 237/2/6 242/2/6
f 241/1/6 236/1/6 242/1/6
f 242/2/6 237/2/6 243/2/6
f 237/1/6 238/1/6 244/1/6
f 243/2/6 237/2/6 244/2/6
f 238/2/6 239/2/6 245/2/6
f 244/1/6 238/1/6 245/1/6
f 245/2/6 239/2/6 246/2/6
f 245/1/6 246/1/6 249/1/6
f 249/1/6 246/1/6 250/1/6
f 247/1/6 248/1/6 252/1/6
f 248/2/6 249/2/6 253/2/6
f 252/1/6 248/1/6 253/1/6
f 253/2/6 249/2/6 254/2/6
f 251/1/6 252/1/6 255/1/6
f 252/2/6 253/2/6 256/2/6
f 255/1/6 252/1/6 256/1/6
f 255/2/6 256/2/6 257/2/6
f 256/2/6 253/2/6 258/2/6
f 257/2/6 256/2/6 258/2/6
f 259/1/6 260/1/6 261/1/6
f 261/1/6 260/1/6 262/1/6
f 263/1/6 264/1/6 265/1/6
f 265/1/6 264/1/6 266/1/6
f 267/1/6 268/1/6 269/1/6
f 269/1/6 268/1/6 270/1/6
