# MagicaVoxel @ Ephtracy

# group
o stick3

# material
mtllib stick5.mtl
usemtl palette

# normals
vn -1 0 0
vn 1 0 0
vn 0 0 1
vn 0 0 -1
vn 0 -1 0
vn 0 1 0

# texcoords
vt 0.943359 0.5
vt 0.994141 0.5

# verts
v -1.4 0 -0.1
v -1.4 0 -0.2
v -1.4 0.1 -0.1
v -1.4 0.1 -0.2
v -1.2 0 -0.2
v -1.2 0 -0.3
v -1.2 0.1 -0.2
v -1.2 0.1 -0.3
v -1.1 0 0.3
v -1.1 0 0.2
v -1.1 0.1 0.3
v -1.1 0.1 0.2
v -1 0 0.5
v -1 0 0.4
v -1 0 0.3
v -1 0 0.2
v -1 0 5.96046e-08
v -1 0 -0.3
v -1 0 -0.4
v -1 0.1 0.5
v -1 0.1 0.4
v -1 0.1 0.3
v -1 0.1 0.2
v -1 0.1 5.96046e-08
v -1 0.1 -0.3
v -1 0.1 -0.4
v -0.9 0 0.6
v -0.9 0 0.5
v -0.9 0 5.96046e-08
v -0.9 0 -0.2
v -0.9 0.1 0.6
v -0.9 0.1 0.5
v -0.9 0.1 0.4
v -0.9 0.1 0.3
v -0.9 0.1 0.2
v -0.9 0.1 5.96046e-08
v -0.9 0.1 -0.2
v -0.9 0.2 0.4
v -0.9 0.2 0.2
v -0.8 0.1 0.2
v -0.8 0.1 0.1
v -0.8 0.1 5.96046e-08
v -0.8 0.1 -0.1
v -0.8 0.2 0.2
v -0.8 0.2 -0.1
v -0.7 0 -0.4
v -0.7 0 -0.5
v -0.7 0.1 -0.1
v -0.7 0.1 -0.2
v -0.7 0.1 -0.4
v -0.7 0.1 -0.5
v -0.7 0.2 -0.1
v -0.7 0.2 -0.2
v -0.6 0 -0.5
v -0.6 0 -0.6
v -0.6 0 -0.7
v -0.6 0.1 -0.5
v -0.6 0.1 -0.6
v -0.6 0.1 -0.7
v -0.5 0 -0.7
v -0.5 0 -0.8
v -0.5 0.1 -0.4
v -0.5 0.1 -0.5
v -0.5 0.1 -0.7
v -0.5 0.1 -0.8
v -0.5 0.2 -0.4
v -0.5 0.2 -0.5
v -0.3 0 -0.8
v -0.3 0 -0.9
v -0.3 0.1 -0.8
v -0.3 0.1 -0.9
v -0.2 0 -0.5
v -0.2 0 -0.6
v -0.2 0.1 -0.5
v -0.2 0.1 -0.6
v -0.1 0 -0.9
v -0.1 0 -1
v -0.1 0.1 -0.7
v -0.1 0.1 -0.8
v -0.1 0.1 -0.9
v -0.1 0.1 -1
v -0.1 0.2 -0.7
v -0.1 0.2 -0.8
v 0 0 -0.4
v 0 0 -0.5
v 0 0.1 -0.4
v 0 0.1 -0.5
v 0 0.1 -0.8
v 0 0.1 -0.9
v 0 0.2 -0.8
v 0 0.2 -0.9
v 0.1 0 -1
v 0.1 0 -1.1
v 0.1 0.1 -1
v 0.1 0.1 -1.1
v -1.2 0 -0.1
v -1.2 0 -0.2
v -1.2 0.1 -0.1
v -1.2 0.1 -0.2
v -0.8 0 0.6
v -0.8 0 0.5
v -0.8 0 0.4
v -0.8 0 0.2
v -0.8 0.1 0.6
v -0.8 0.1 0.5
v -0.8 0.1 0.4
v -0.8 0.1 0.2
v -0.8 0.2 0.4
v -0.8 0.2 0.2
v -0.7 0 0.2
v -0.7 0 -0.1
v -0.7 0.1 0.2
v -0.7 0.1 -0.1
v -0.7 0.2 0.2
v -0.7 0.2 -0.1
v -0.6 0 -0.1
v -0.6 0 -0.2
v -0.6 0.1 -0.1
v -0.6 0.1 -0.2
v -0.6 0.2 -0.1
v -0.6 0.2 -0.2
v -0.5 0 -0.2
v -0.5 0 -0.3
v -0.5 0.1 -0.2
v -0.5 0.1 -0.3
v -0.4 0 -0.3
v -0.4 0 -0.5
v -0.4 0.1 -0.3
v -0.4 0.1 -0.4
v -0.4 0.1 -0.5
v -0.4 0.2 -0.4
v -0.4 0.2 -0.5
v -0.3 0 -0.5
v -0.3 0 -0.6
v -0.3 0.1 -0.5
v -0.3 0.1 -0.6
v -0.1 0 -0.6
v -0.1 0 -0.7
v -0.1 0.1 -0.6
v -0.1 0.1 -0.7
v 0 0 -0.7
v 0 0 -0.8
v 0 0.1 -0.8
v 0 0.2 -0.7
v 0 0.2 -0.8
v 0.1 0 -0.5
v 0.1 0 -0.6
v 0.1 0.1 -0.5
v 0.1 0.1 -0.6
v 0.1 0.1 -0.8
v 0.1 0.1 -0.9
v 0.1 0.2 -0.8
v 0.1 0.2 -0.9
v 0.2 0 -0.8
v 0.2 0 -0.9
v 0.2 0.1 -0.8
v 0.2 0.1 -0.9
v 0.3 0 -0.4
v 0.3 0 -0.5
v 0.3 0 -1
v 0.3 0 -1.1
v 0.3 0.1 -0.4
v 0.3 0.1 -0.5
v 0.3 0.1 -1
v 0.3 0.1 -1.1
v 0.4 0 -0.9
v 0.4 0 -1
v 0.4 0.1 -0.9
v 0.4 0.1 -1
v -0.9 0 0.6
v -0.9 0.1 0.6
v -0.8 0 0.6
v -0.8 0.1 0.6
v -1 0 0.5
v -1 0.1 0.5
v -0.9 0 0.5
v -0.9 0.1 0.5
v -0.9 0.1 0.4
v -0.9 0.2 0.4
v -0.8 0.1 0.4
v -0.8 0.2 0.4
v -1.1 0 0.3
v -1.1 0.1 0.3
v -1 0 0.3
v -1 0.1 0.3
v -0.8 0 0.2
v -0.8 0.1 0.2
v -0.8 0.2 0.2
v -0.7 0 0.2
v -0.7 0.1 0.2
v -0.7 0.2 0.2
v -1.4 0 -0.1
v -1.4 0.1 -0.1
v -1.3 0 -0.1
v -1.3 0.1 -0.1
v -1.2 0 -0.1
v -1.2 0.1 -0.1
v -0.7 0 -0.1
v -0.7 0.1 -0.1
v -0.7 0.2 -0.1
v -0.6 0 -0.1
v -0.6 0.1 -0.1
v -0.6 0.2 -0.1
v -1.2 0 -0.2
v -1.2 0.1 -0.2
v -1.1 0 -0.2
v -1.1 0.1 -0.2
v -0.9 0 -0.2
v -0.9 0.1 -0.2
v -0.6 0 -0.2
v -0.6 0.1 -0.2
v -0.5 0 -0.2
v -0.5 0.1 -0.2
v -0.5 0 -0.3
v -0.5 0.1 -0.3
v -0.4 0 -0.3
v -0.4 0.1 -0.3
v -0.5 0.1 -0.4
v -0.5 0.2 -0.4
v -0.4 0.1 -0.4
v -0.4 0.2 -0.4
v 0 0 -0.4
v 0 0.1 -0.4
v 0.2 0 -0.4
v 0.2 0.1 -0.4
v 0.3 0 -0.4
v 0.3 0.1 -0.4
v -0.4 0 -0.5
v -0.4 0.1 -0.5
v -0.3 0 -0.5
v -0.3 0.1 -0.5
v -0.2 0 -0.5
v -0.2 0.1 -0.5
v 0 0 -0.5
v 0 0.1 -0.5
v -0.3 0 -0.6
v -0.3 0.1 -0.6
v -0.2 0 -0.6
v -0.2 0.1 -0.6
v -0.1 0 -0.7
v -0.1 0.1 -0.7
v -0.1 0.2 -0.7
v 0 0 -0.7
v 0 0.2 -0.7
v 0 0 -0.8
v 0 0.1 -0.8
v 0 0.2 -0.8
v 0.1 0.1 -0.8
v 0.1 0.2 -0.8
v 0.2 0 -0.8
v 0.2 0.1 -0.8
v 0.2 0 -0.9
v 0.2 0.1 -0.9
v 0.4 0 -0.9
v 0.4 0.1 -0.9
v -1.1 0 0.2
v -1.1 0.1 0.2
v -1 0 0.2
v -1 0.1 0.2
v -0.9 0.1 0.2
v -0.9 0.2 0.2
v -0.8 0.1 0.2
v -0.8 0.2 0.2
v -1 0 5.96046e-08
v -1 0.1 5.96046e-08
v -0.9 0 5.96046e-08
v -0.9 0.1 5.96046e-08
v -0.8 0.1 -0.1
v -0.8 0.2 -0.1
v -0.7 0.1 -0.1
v -0.7 0.2 -0.1
v -1.4 0 -0.2
v -1.4 0.1 -0.2
v -1.3 0 -0.2
v -1.3 0.1 -0.2
v -1.2 0 -0.2
v -1.2 0.1 -0.2
v -0.7 0.1 -0.2
v -0.7 0.2 -0.2
v -0.6 0.1 -0.2
v -0.6 0.2 -0.2
v -1.2 0 -0.3
v -1.2 0.1 -0.3
v -1.1 0 -0.3
v -1.1 0.1 -0.3
v -1 0 -0.3
v -1 0.1 -0.3
v -1 0 -0.4
v -1 0.1 -0.4
v -0.9 0 -0.4
v -0.9 0.1 -0.4
v -0.8 0 -0.4
v -0.8 0.1 -0.4
v -0.7 0 -0.4
v -0.7 0.1 -0.4
v -0.7 0 -0.5
v -0.7 0.1 -0.5
v -0.6 0 -0.5
v -0.6 0.1 -0.5
v -0.5 0.1 -0.5
v -0.5 0.2 -0.5
v -0.4 0.1 -0.5
v -0.4 0.2 -0.5
v 0.1 0 -0.5
v 0.1 0.1 -0.5
v 0.2 0 -0.5
v 0.2 0.1 -0.5
v 0.3 0 -0.5
v 0.3 0.1 -0.5
v -0.1 0 -0.6
v -0.1 0.1 -0.6
v 0 0 -0.6
v 0 0.1 -0.6
v 0.1 0 -0.6
v 0.1 0.1 -0.6
v -0.6 0 -0.7
v -0.6 0.1 -0.7
v -0.5 0 -0.7
v -0.5 0.1 -0.7
v -0.5 0 -0.8
v -0.5 0.1 -0.8
v -0.3 0 -0.8
v -0.3 0.1 -0.8
v -0.1 0.1 -0.8
v -0.1 0.2 -0.8
v 0 0.1 -0.8
v 0 0.2 -0.8
v -0.3 0 -0.9
v -0.3 0.1 -0.9
v -0.1 0 -0.9
v -0.1 0.1 -0.9
v 0 0.1 -0.9
v 0 0.2 -0.9
v 0.1 0.1 -0.9
v 0.1 0.2 -0.9
v -0.1 0 -1
v -0.1 0.1 -1
v 0 0 -1
v 0 0.1 -1
v 0.1 0 -1
v 0.1 0.1 -1
v 0.3 0 -1
v 0.3 0.1 -1
v 0.4 0 -1
v 0.4 0.1 -1
v 0.1 0 -1.1
v 0.1 0.1 -1.1
v 0.2 0 -1.1
v 0.2 0.1 -1.1
v 0.3 0 -1.1
v 0.3 0.1 -1.1
v -0.9 0 0.6
v -0.8 0 0.6
v -1 0 0.5
v -0.9 0 0.5
v -0.8 0 0.5
v -1 0 0.4
v -0.8 0 0.4
v -1.1 0 0.3
v -1 0 0.3
v -0.9 0 0.3
v -1.1 0 0.2
v -1 0 0.2
v -0.9 0 0.2
v -0.8 0 0.2
v -0.7 0 0.2
v -0.9 0 0.1
v -0.8 0 0.1
v -1 0 5.96046e-08
v -0.9 0 5.96046e-08
v -0.8 0 5.96046e-08
v -1.4 0 -0.1
v -1.3 0 -0.1
v -1.2 0 -0.1
v -0.8 0 -0.1
v -0.7 0 -0.1
v -0.6 0 -0.1
v -1.4 0 -0.2
v -1.3 0 -0.2
v -1.2 0 -0.2
v -1.1 0 -0.2
v -0.9 0 -0.2
v -0.8 0 -0.2
v -0.7 0 -0.2
v -0.6 0 -0.2
v -0.5 0 -0.2
v -1.2 0 -0.3
v -1.1 0 -0.3
v -1 0 -0.3
v -0.8 0 -0.3
v -0.6 0 -0.3
v -0.5 0 -0.3
v -0.4 0 -0.3
v -1 0 -0.4
v -0.9 0 -0.4
v -0.8 0 -0.4
v -0.7 0 -0.4
v 0 0 -0.4
v 0.2 0 -0.4
v 0.3 0 -0.4
v -0.7 0 -0.5
v -0.6 0 -0.5
v -0.4 0 -0.5
v -0.3 0 -0.5
v -0.2 0 -0.5
v 0 0 -0.5
v 0.1 0 -0.5
v 0.2 0 -0.5
v 0.3 0 -0.5
v -0.6 0 -0.6
v -0.5 0 -0.6
v -0.4 0 -0.6
v -0.3 0 -0.6
v -0.2 0 -0.6
v -0.1 0 -0.6
v 0 0 -0.6
v 0.1 0 -0.6
v -0.6 0 -0.7
v -0.5 0 -0.7
v -0.4 0 -0.7
v -0.2 0 -0.7
v -0.1 0 -0.7
v 0 0 -0.7
v -0.5 0 -0.8
v -0.3 0 -0.8
v -0.1 0 -0.8
v 0 0 -0.8
v 0.2 0 -0.8
v -0.3 0 -0.9
v -0.1 0 -0.9
v 0 0 -0.9
v 0.2 0 -0.9
v 0.4 0 -0.9
v -0.1 0 -1
v 0 0 -1
v 0.1 0 -1
v 0.3 0 -1
v 0.4 0 -1
v 0.1 0 -1.1
v 0.2 0 -1.1
v 0.3 0 -1.1
v -0.9 0.1 0.6
v -0.8 0.1 0.6
v -1 0.1 0.5
v -0.9 0.1 0.5
v -0.8 0.1 0.5
v -1 0.1 0.4
v -0.9 0.1 0.4
v -0.8 0.1 0.4
v -1.1 0.1 0.3
v -1 0.1 0.3
v -0.9 0.1 0.3
v -1.1 0.1 0.2
v -1 0.1 0.2
v -0.9 0.1 0.2
v -0.8 0.1 0.2
v -0.9 0.1 0.1
v -0.8 0.1 0.1
v -1 0.1 5.96046e-08
v -0.9 0.1 5.96046e-08
v -0.8 0.1 5.96046e-08
v -1.4 0.1 -0.1
v -1.3 0.1 -0.1
v -1.2 0.1 -0.1
v -0.8 0.1 -0.1
v -0.7 0.1 -0.1
v -1.4 0.1 -0.2
v -1.3 0.1 -0.2
v -1.2 0.1 -0.2
v -1.1 0.1 -0.2
v -0.9 0.1 -0.2
v -0.8 0.1 -0.2
v -0.7 0.1 -0.2
v -0.6 0.1 -0.2
v -0.5 0.1 -0.2
v -1.2 0.1 -0.3
v -1.1 0.1 -0.3
v -1 0.1 -0.3
v -0.8 0.1 -0.3
v -0.6 0.1 -0.3
v -0.5 0.1 -0.3
v -0.4 0.1 -0.3
v -1 0.1 -0.4
v -0.9 0.1 -0.4
v -0.8 0.1 -0.4
v -0.7 0.1 -0.4
v -0.5 0.1 -0.4
v -0.4 0.1 -0.4
v 0 0.1 -0.4
v 0.2 0.1 -0.4
v 0.3 0.1 -0.4
v -0.7 0.1 -0.5
v -0.6 0.1 -0.5
v -0.5 0.1 -0.5
v -0.4 0.1 -0.5
v -0.3 0.1 -0.5
v -0.2 0.1 -0.5
v 0 0.1 -0.5
v 0.1 0.1 -0.5
v 0.2 0.1 -0.5
v 0.3 0.1 -0.5
v -0.6 0.1 -0.6
v -0.5 0.1 -0.6
v -0.4 0.1 -0.6
v -0.3 0.1 -0.6
v -0.2 0.1 -0.6
v -0.1 0.1 -0.6
v 0 0.1 -0.6
v 0.1 0.1 -0.6
v -0.6 0.1 -0.7
v -0.5 0.1 -0.7
v -0.4 0.1 -0.7
v -0.2 0.1 -0.7
v -0.1 0.1 -0.7
v -0.5 0.1 -0.8
v -0.3 0.1 -0.8
v -0.1 0.1 -0.8
v 0 0.1 -0.8
v 0.1 0.1 -0.8
v 0.2 0.1 -0.8
v -0.3 0.1 -0.9
v -0.1 0.1 -0.9
v 0 0.1 -0.9
v 0.1 0.1 -0.9
v 0.2 0.1 -0.9
v 0.4 0.1 -0.9
v -0.1 0.1 -1
v 0 0.1 -1
v 0.1 0.1 -1
v 0.3 0.1 -1
v 0.4 0.1 -1
v 0.1 0.1 -1.1
v 0.2 0.1 -1.1
v 0.3 0.1 -1.1
v -0.9 0.2 0.4
v -0.8 0.2 0.4
v -0.9 0.2 0.2
v -0.8 0.2 0.2
v -0.7 0.2 0.2
v -0.8 0.2 -0.1
v -0.7 0.2 -0.1
v -0.6 0.2 -0.1
v -0.7 0.2 -0.2
v -0.6 0.2 -0.2
v -0.5 0.2 -0.4
v -0.4 0.2 -0.4
v -0.5 0.2 -0.5
v -0.4 0.2 -0.5
v -0.1 0.2 -0.7
v 0 0.2 -0.7
v -0.1 0.2 -0.8
v 0 0.2 -0.8
v 0.1 0.2 -0.8
v 0 0.2 -0.9
v 0.1 0.2 -0.9

# faces
f 3/1/1 2/1/1 1/1/1
f 4/1/1 2/1/1 3/1/1
f 7/1/1 6/1/1 5/1/1
f 8/1/1 6/1/1 7/1/1
f 11/2/1 10/2/1 9/2/1
f 12/2/1 10/2/1 11/2/1
f 20/1/1 14/1/1 13/1/1
f 21/2/1 15/2/1 14/2/1
f 21/1/1 14/1/1 20/1/1
f 22/2/1 15/2/1 21/2/1
f 23/2/1 17/2/1 16/2/1
f 24/2/1 17/2/1 23/2/1
f 25/2/1 19/2/1 18/2/1
f 26/2/1 19/2/1 25/2/1
f 31/2/1 28/2/1 27/2/1
f 32/2/1 28/2/1 31/2/1
f 36/2/1 30/2/1 29/2/1
f 37/2/1 30/2/1 36/2/1
f 38/2/1 35/2/1 34/2/1
f 38/2/1 34/2/1 33/2/1
f 39/2/1 35/2/1 38/2/1
f 44/1/1 41/1/1 40/1/1
f 44/1/1 43/1/1 42/1/1
f 44/1/1 42/1/1 41/1/1
f 45/1/1 43/1/1 44/1/1
f 50/2/1 47/2/1 46/2/1
f 51/2/1 47/2/1 50/2/1
f 52/1/1 49/1/1 48/1/1
f 53/1/1 49/1/1 52/1/1
f 57/1/1 55/1/1 54/1/1
f 58/2/1 56/2/1 55/2/1
f 58/1/1 55/1/1 57/1/1
f 59/2/1 56/2/1 58/2/1
f 64/1/1 61/1/1 60/1/1
f 65/1/1 61/1/1 64/1/1
f 66/1/1 63/1/1 62/1/1
f 67/1/1 63/1/1 66/1/1
f 70/2/1 69/2/1 68/2/1
f 71/2/1 69/2/1 70/2/1
f 74/1/1 73/1/1 72/1/1
f 75/1/1 73/1/1 74/1/1
f 80/2/1 77/2/1 76/2/1
f 81/2/1 77/2/1 80/2/1
f 82/2/1 79/2/1 78/2/1
f 83/2/1 79/2/1 82/2/1
f 86/1/1 85/1/1 84/1/1
f 87/1/1 85/1/1 86/1/1
f 90/1/1 89/1/1 88/1/1
f 91/1/1 89/1/1 90/1/1
f 94/1/1 93/1/1 92/1/1
f 95/1/1 93/1/1 94/1/1
f 96/2/2 97/2/2 98/2/2
f 98/2/2 97/2/2 99/2/2
f 100/2/2 101/2/2 104/2/2
f 101/1/2 102/1/2 105/1/2
f 104/2/2 101/2/2 105/2/2
f 102/2/2 103/2/2 106/2/2
f 105/1/2 102/1/2 106/1/2
f 106/2/2 103/2/2 107/2/2
f 106/2/2 107/2/2 108/2/2
f 108/2/2 107/2/2 109/2/2
f 110/2/2 111/2/2 112/2/2
f 112/2/2 111/2/2 113/2/2
f 112/1/2 113/1/2 114/1/2
f 114/1/2 113/1/2 115/1/2
f 116/2/2 117/2/2 118/2/2
f 118/2/2 117/2/2 119/2/2
f 118/1/2 119/1/2 120/1/2
f 120/1/2 119/1/2 121/1/2
f 122/2/2 123/2/2 124/2/2
f 124/2/2 123/2/2 125/2/2
f 126/2/2 127/2/2 128/2/2
f 128/2/2 127/2/2 129/2/2
f 129/2/2 127/2/2 130/2/2
f 129/1/2 130/1/2 131/1/2
f 131/1/2 130/1/2 132/1/2
f 133/1/2 134/1/2 135/1/2
f 135/1/2 134/1/2 136/1/2
f 137/1/2 138/1/2 139/1/2
f 139/1/2 138/1/2 140/1/2
f 141/2/2 142/2/2 143/2/2
f 141/2/2 143/2/2 144/2/2
f 144/2/2 143/2/2 145/2/2
f 146/2/2 147/2/2 148/2/2
f 148/2/2 147/2/2 149/2/2
f 150/1/2 151/1/2 152/1/2
f 152/1/2 151/1/2 153/1/2
f 154/2/2 155/2/2 156/2/2
f 156/2/2 155/2/2 157/2/2
f 158/2/2 159/2/2 162/2/2
f 162/2/2 159/2/2 163/2/2
f 160/2/2 161/2/2 164/2/2
f 164/2/2 161/2/2 165/2/2
f 166/2/2 167/2/2 168/2/2
f 168/2/2 167/2/2 169/2/2
f 172/2/3 171/2/3 170/2/3
f 173/2/3 171/2/3 172/2/3
f 176/1/3 175/1/3 174/1/3
f 177/1/3 175/1/3 176/1/3
f 180/2/3 179/2/3 178/2/3
f 181/2/3 179/2/3 180/2/3
f 184/2/3 183/2/3 182/2/3
f 185/2/3 183/2/3 184/2/3
f 189/2/3 187/2/3 186/2/3
f 190/1/3 188/1/3 187/1/3
f 190/2/3 187/2/3 189/2/3
f 191/1/3 188/1/3 190/1/3
f 194/1/3 193/1/3 192/1/3
f 195/1/3 193/1/3 194/1/3
f 196/2/3 195/2/3 194/2/3
f 197/2/3 195/2/3 196/2/3
f 201/2/3 199/2/3 198/2/3
f 202/1/3 200/1/3 199/1/3
f 202/2/3 199/2/3 201/2/3
f 203/1/3 200/1/3 202/1/3
f 206/1/3 205/1/3 204/1/3
f 207/1/3 205/1/3 206/1/3
f 208/2/3 207/2/3 206/2/3
f 209/2/3 207/2/3 208/2/3
f 212/2/3 211/2/3 210/2/3
f 213/2/3 211/2/3 212/2/3
f 216/2/3 215/2/3 214/2/3
f 217/2/3 215/2/3 216/2/3
f 220/1/3 219/1/3 218/1/3
f 221/1/3 219/1/3 220/1/3
f 224/1/3 223/1/3 222/1/3
f 225/1/3 223/1/3 224/1/3
f 226/2/3 225/2/3 224/2/3
f 227/2/3 225/2/3 226/2/3
f 230/1/3 229/1/3 228/1/3
f 231/1/3 229/1/3 230/1/3
f 234/1/3 233/1/3 232/1/3
f 235/1/3 233/1/3 234/1/3
f 238/2/3 237/2/3 236/2/3
f 239/2/3 237/2/3 238/2/3
f 243/2/3 241/2/3 240/2/3
f 243/2/3 242/2/3 241/2/3
f 244/2/3 242/2/3 243/2/3
f 248/2/3 246/2/3 245/2/3
f 248/1/3 247/1/3 246/1/3
f 249/1/3 247/1/3 248/1/3
f 250/2/3 248/2/3 245/2/3
f 251/2/3 248/2/3 250/2/3
f 254/2/3 253/2/3 252/2/3
f 255/2/3 253/2/3 254/2/3
f 256/2/4 257/2/4 258/2/4
f 258/2/4 257/2/4 259/2/4
f 260/2/4 261/2/4 262/2/4
f 262/2/4 261/2/4 263/2/4
f 264/2/4 265/2/4 266/2/4
f 266/2/4 265/2/4 267/2/4
f 268/1/4 269/1/4 270/1/4
f 270/1/4 269/1/4 271/1/4
f 272/1/4 273/1/4 274/1/4
f 274/1/4 273/1/4 275/1/4
f 274/2/4 275/2/4 276/2/4
f 276/2/4 275/2/4 277/2/4
f 278/1/4 279/1/4 280/1/4
f 280/1/4 279/1/4 281/1/4
f 282/1/4 283/1/4 284/1/4
f 284/1/4 283/1/4 285/1/4
f 284/2/4 285/2/4 286/2/4
f 286/2/4 285/2/4 287/2/4
f 288/2/4 289/2/4 290/2/4
f 290/2/4 289/2/4 291/2/4
f 290/1/4 291/1/4 292/1/4
f 292/1/4 291/1/4 293/1/4
f 292/2/4 293/2/4 294/2/4
f 294/2/4 293/2/4 295/2/4
f 296/2/4 297/2/4 298/2/4
f 298/2/4 297/2/4 299/2/4
f 300/1/4 301/1/4 302/1/4
f 302/1/4 301/1/4 303/1/4
f 304/1/4 305/1/4 306/1/4
f 306/1/4 305/1/4 307/1/4
f 306/2/4 307/2/4 308/2/4
f 308/2/4 307/2/4 309/2/4
f 310/1/4 311/1/4 312/1/4
f 312/1/4 311/1/4 313/1/4
f 312/2/4 313/2/4 314/2/4
f 314/2/4 313/2/4 315/2/4
f 316/2/4 317/2/4 318/2/4
f 318/2/4 317/2/4 319/2/4
f 320/1/4 321/1/4 322/1/4
f 322/1/4 321/1/4 323/1/4
f 324/2/4 325/2/4 326/2/4
f 326/2/4 325/2/4 327/2/4
f 328/2/4 329/2/4 330/2/4
f 330/2/4 329/2/4 331/2/4
f 332/1/4 333/1/4 334/1/4
f 334/1/4 333/1/4 335/1/4
f 336/2/4 337/2/4 338/2/4
f 338/2/4 337/2/4 339/2/4
f 338/1/4 339/1/4 340/1/4
f 340/1/4 339/1/4 341/1/4
f 342/2/4 343/2/4 344/2/4
f 344/2/4 343/2/4 345/2/4
f 346/1/4 347/1/4 348/1/4
f 348/1/4 347/1/4 349/1/4
f 348/2/4 349/2/4 350/2/4
f 350/2/4 349/2/4 351/2/4
f 355/2/5 353/2/5 352/2/5
f 356/2/5 353/2/5 355/2/5
f 357/1/5 355/1/5 354/1/5
f 357/1/5 356/1/5 355/1/5
f 358/1/5 356/1/5 357/1/5
f 360/2/5 358/2/5 357/2/5
f 361/2/5 358/2/5 360/2/5
f 362/2/5 360/2/5 359/2/5
f 363/1/5 361/1/5 360/1/5
f 363/2/5 360/2/5 362/2/5
f 364/2/5 358/2/5 361/2/5
f 364/1/5 361/1/5 363/1/5
f 365/2/5 358/2/5 364/2/5
f 367/2/5 365/2/5 364/2/5
f 367/2/5 366/2/5 365/2/5
f 367/2/5 364/2/5 363/2/5
f 368/2/5 366/2/5 367/2/5
f 369/2/5 367/2/5 363/2/5
f 370/1/5 368/1/5 367/1/5
f 370/2/5 367/2/5 369/2/5
f 371/2/5 366/2/5 368/2/5
f 371/1/5 368/1/5 370/1/5
f 375/2/5 366/2/5 371/2/5
f 375/2/5 371/2/5 370/2/5
f 376/2/5 366/2/5 375/2/5
f 378/1/5 373/1/5 372/1/5
f 379/2/5 374/2/5 373/2/5
f 379/1/5 373/1/5 378/1/5
f 380/2/5 374/2/5 379/2/5
f 382/2/5 375/2/5 370/2/5
f 383/1/5 376/1/5 375/1/5
f 383/2/5 375/2/5 382/2/5
f 384/2/5 377/2/5 376/2/5
f 384/1/5 376/1/5 383/1/5
f 385/2/5 377/2/5 384/2/5
f 387/1/5 381/1/5 380/1/5
f 388/2/5 382/2/5 381/2/5
f 388/1/5 381/1/5 387/1/5
f 389/2/5 382/2/5 388/2/5
f 390/1/5 383/1/5 382/1/5
f 390/1/5 385/1/5 384/1/5
f 390/1/5 384/1/5 383/1/5
f 391/2/5 386/2/5 385/2/5
f 391/1/5 385/1/5 390/1/5
f 392/2/5 386/2/5 391/2/5
f 394/2/5 382/2/5 389/2/5
f 395/1/5 390/1/5 382/1/5
f 395/2/5 382/2/5 394/2/5
f 396/2/5 391/2/5 390/2/5
f 396/1/5 390/1/5 395/1/5
f 397/2/5 391/2/5 396/2/5
f 401/2/5 391/2/5 397/2/5
f 402/1/5 392/1/5 391/1/5
f 402/2/5 391/2/5 401/2/5
f 403/2/5 393/2/5 392/2/5
f 406/1/5 399/1/5 398/1/5
f 407/1/5 399/1/5 406/1/5
f 408/2/5 400/2/5 399/2/5
f 408/1/5 399/1/5 407/1/5
f 409/2/5 400/2/5 408/2/5
f 410/1/5 392/1/5 402/1/5
f 411/2/5 403/2/5 392/2/5
f 411/1/5 392/1/5 410/1/5
f 412/1/5 404/1/5 403/1/5
f 412/2/5 403/2/5 411/2/5
f 413/1/5 404/1/5 412/1/5
f 414/1/5 406/1/5 405/1/5
f 415/1/5 406/1/5 414/1/5
f 416/2/5 407/2/5 406/2/5
f 416/1/5 406/1/5 415/1/5
f 417/2/5 407/2/5 416/2/5
f 418/2/5 411/2/5 410/2/5
f 419/1/5 412/1/5 411/1/5
f 419/2/5 411/2/5 418/2/5
f 420/2/5 413/2/5 412/2/5
f 420/1/5 412/1/5 419/1/5
f 420/2/5 414/2/5 413/2/5
f 421/1/5 415/1/5 414/1/5
f 421/2/5 414/2/5 420/2/5
f 422/1/5 415/1/5 421/1/5
f 424/1/5 420/1/5 419/1/5
f 424/1/5 422/1/5 421/1/5
f 424/1/5 421/1/5 420/1/5
f 425/1/5 422/1/5 424/1/5
f 426/2/5 423/2/5 422/2/5
f 426/1/5 422/1/5 425/1/5
f 427/2/5 423/2/5 426/2/5
f 429/2/5 426/2/5 425/2/5
f 430/1/5 427/1/5 426/1/5
f 430/2/5 426/2/5 429/2/5
f 431/2/5 428/2/5 427/2/5
f 431/1/5 427/1/5 430/1/5
f 432/2/5 428/2/5 431/2/5
f 434/2/5 431/2/5 430/2/5
f 435/1/5 432/1/5 431/1/5
f 435/2/5 431/2/5 434/2/5
f 436/1/5 432/1/5 435/1/5
f 437/2/5 433/2/5 432/2/5
f 438/2/5 433/2/5 437/2/5
f 439/1/5 432/1/5 436/1/5
f 440/2/5 437/2/5 432/2/5
f 440/1/5 432/1/5 439/1/5
f 441/2/5 437/2/5 440/2/5
f 442/2/6 443/2/6 445/2/6
f 445/2/6 443/2/6 446/2/6
f 444/1/6 445/1/6 447/1/6
f 445/1/6 446/1/6 447/1/6
f 447/1/6 446/1/6 448/1/6
f 448/1/6 446/1/6 449/1/6
f 447/2/6 448/2/6 451/2/6
f 451/2/6 448/2/6 452/2/6
f 450/2/6 451/2/6 453/2/6
f 451/1/6 452/1/6 454/1/6
f 453/2/6 451/2/6 454/2/6
f 454/1/6 452/1/6 455/1/6
f 454/2/6 455/2/6 457/2/6
f 455/2/6 456/2/6 457/2/6
f 457/2/6 456/2/6 458/2/6
f 454/2/6 457/2/6 459/2/6
f 457/1/6 458/1/6 460/1/6
f 459/2/6 457/2/6 460/2/6
f 460/1/6 458/1/6 461/1/6
f 460/2/6 461/2/6 465/2/6
f 462/1/6 463/1/6 467/1/6
f 463/2/6 464/2/6 468/2/6
f 467/1/6 463/1/6 468/1/6
f 468/2/6 464/2/6 469/2/6
f 460/2/6 465/2/6 471/2/6
f 465/1/6 466/1/6 472/1/6
f 471/2/6 465/2/6 472/2/6
f 472/1/6 466/1/6 473/1/6
f 469/1/6 470/1/6 476/1/6
f 470/2/6 471/2/6 477/2/6
f 476/1/6 470/1/6 477/1/6
f 477/2/6 471/2/6 478/2/6
f 473/1/6 474/1/6 479/1/6
f 472/1/6 473/1/6 479/1/6
f 471/1/6 472/1/6 479/1/6
f 474/2/6 475/2/6 480/2/6
f 479/1/6 474/1/6 480/1/6
f 480/2/6 475/2/6 481/2/6
f 478/2/6 471/2/6 483/2/6
f 471/1/6 479/1/6 484/1/6
f 483/2/6 471/2/6 484/2/6
f 479/2/6 480/2/6 485/2/6
f 484/1/6 479/1/6 485/1/6
f 485/2/6 480/2/6 486/2/6
f 481/2/6 482/2/6 487/2/6
f 480/1/6 481/1/6 487/1/6
f 487/2/6 482/2/6 488/2/6
f 486/2/6 480/2/6 492/2/6
f 480/1/6 487/1/6 493/1/6
f 492/2/6 480/2/6 493/2/6
f 493/1/6 487/1/6 494/1/6
f 489/1/6 490/1/6 498/1/6
f 498/1/6 490/1/6 499/1/6
f 490/2/6 491/2/6 500/2/6
f 499/1/6 490/1/6 500/1/6
f 500/2/6 491/2/6 501/2/6
f 493/1/6 494/1/6 502/1/6
f 494/2/6 495/2/6 503/2/6
f 502/1/6 494/1/6 503/1/6
f 495/1/6 496/1/6 504/1/6
f 503/2/6 495/2/6 504/2/6
f 504/1/6 496/1/6 505/1/6
f 497/1/6 498/1/6 506/1/6
f 506/1/6 498/1/6 507/1/6
f 498/2/6 499/2/6 508/2/6
f 507/1/6 498/1/6 508/1/6
f 508/2/6 499/2/6 509/2/6
f 502/2/6 503/2/6 510/2/6
f 503/1/6 504/1/6 511/1/6
f 510/2/6 503/2/6 511/2/6
f 504/2/6 505/2/6 512/2/6
f 511/1/6 504/1/6 512/1/6
f 505/2/6 506/2/6 512/2/6
f 506/1/6 507/1/6 513/1/6
f 512/2/6 506/2/6 513/2/6
f 513/1/6 507/1/6 514/1/6
f 511/1/6 512/1/6 515/1/6
f 513/1/6 514/1/6 515/1/6
f 512/1/6 513/1/6 515/1/6
f 515/1/6 514/1/6 516/1/6
f 516/1/6 514/1/6 517/1/6
f 516/2/6 517/2/6 521/2/6
f 517/1/6 518/1/6 522/1/6
f 521/2/6 517/2/6 522/2/6
f 522/1/6 518/1/6 523/1/6
f 519/2/6 520/2/6 524/2/6
f 524/2/6 520/2/6 525/2/6
f 522/2/6 523/2/6 527/2/6
f 524/1/6 525/1/6 528/1/6
f 527/2/6 523/2/6 528/2/6
f 523/1/6 524/1/6 528/1/6
f 528/1/6 525/1/6 529/1/6
f 525/2/6 526/2/6 530/2/6
f 530/2/6 526/2/6 531/2/6
f 529/1/6 525/1/6 532/1/6
f 525/2/6 530/2/6 533/2/6
f 532/1/6 525/1/6 533/1/6
f 533/2/6 530/2/6 534/2/6
f 535/2/6 536/2/6 537/2/6
f 537/2/6 536/2/6 538/2/6
f 538/1/6 539/1/6 540/1/6
f 540/1/6 539/1/6 541/1/6
f 541/1/6 542/1/6 543/1/6
f 543/1/6 542/1/6 544/1/6
f 545/1/6 546/1/6 547/1/6
f 547/1/6 546/1/6 548/1/6
f 549/2/6 550/2/6 551/2/6
f 551/2/6 550/2/6 552/2/6
f 552/1/6 553/1/6 554/1/6
f 554/1/6 553/1/6 555/1/6
